<svg width="105" height="16" viewBox="0 0 105 16" fill="none" xmlns="http://www.w3.org/2000/svg">
<path d="M34.2227 3.79248C32.7051 3.79248 31.3234 4.28134 30.2971 5.07072V4.09301H28.5V15.2726H30.2971V11.8305C31.3234 12.6199 32.7011 13.1088 34.2227 13.1088C37.3775 13.1088 39.9413 11.0211 39.9413 8.45264C39.9413 5.88414 37.3775 3.79248 34.2227 3.79248ZM34.2227 11.3056C32.0582 11.3056 30.2971 10.0234 30.2971 8.45264C30.2971 6.88189 32.0582 5.59964 34.2227 5.59964C36.3871 5.59964 38.1443 6.88189 38.1443 8.45264C38.1443 10.0234 36.3871 11.3056 34.2227 11.3056Z" fill="#1D1D1B"/>
<path d="M20.3848 3.79248C18.8672 3.79248 17.4855 4.28134 16.4592 5.07072V4.09301H14.6621V15.2726H16.4592V11.8305C17.4855 12.6199 18.8633 13.1088 20.3848 13.1088C23.5396 13.1088 26.1034 11.0211 26.1034 8.45264C26.1034 5.88414 23.5396 3.79248 20.3848 3.79248ZM20.3848 11.3056C18.2203 11.3056 16.4592 10.0234 16.4592 8.45264C16.4592 6.88189 18.2203 5.59964 20.3848 5.59964C22.5492 5.59964 24.3064 6.88189 24.3064 8.45264C24.3064 10.0234 22.5492 11.3056 20.3848 11.3056Z" fill="#1D1D1B"/>
<path d="M101.613 7.41081H99.0408C98.1981 7.41081 97.6111 6.92596 97.6111 6.49321C97.6111 6.05644 98.1981 5.57159 99.0408 5.57159H103.921V3.79248H99.0408C97.2716 3.79248 95.834 5.0026 95.834 6.49321C95.834 7.97981 97.2716 9.18993 99.0408 9.18993H101.613C102.459 9.18993 103.046 9.67477 103.046 10.1075C103.046 10.5403 102.459 11.0251 101.613 11.0251H96.437V12.8083H101.613C103.382 12.8083 104.823 11.5981 104.823 10.1075C104.819 8.62093 103.382 7.41081 101.613 7.41081Z" fill="#1D1D1B"/>
<path d="M65.6914 13.1087C62.5366 13.1087 59.9688 11.021 59.9688 8.45254C59.9688 5.88404 62.5366 3.79639 65.6914 3.79639C68.8463 3.79639 71.4101 5.88404 71.4101 8.45254C71.4101 11.021 68.8463 13.1087 65.6914 13.1087ZM65.6914 5.59554C63.5269 5.59554 61.7658 6.87778 61.7658 8.44853C61.7658 10.0193 63.5269 11.3015 65.6914 11.3015C67.8559 11.3015 69.613 10.0193 69.613 8.44853C69.613 6.87778 67.8559 5.59554 65.6914 5.59554Z" fill="#1D1D1B"/>
<path d="M57.7756 1.62842H55.9785V12.808H57.7756V1.62842Z" fill="#1D1D1B"/>
<path d="M81.45 10.7807C80.807 11.1093 80.0283 11.3056 79.1816 11.3056C77.0172 11.3056 75.2561 10.0234 75.2561 8.45264C75.2561 6.88189 77.0172 5.59964 79.1816 5.59964C80.0283 5.59964 80.807 5.79599 81.45 6.12857V6.12456L83.1751 5.12281C82.1448 4.30137 80.7351 3.79248 79.1816 3.79248C76.0268 3.79248 73.459 5.88013 73.459 8.44863C73.459 11.0171 76.0268 13.1048 79.1816 13.1048C80.7351 13.1048 82.1448 12.5959 83.1751 11.7745L81.45 10.7807Z" fill="#1D1D1B"/>
<path d="M53.7812 8.45236C53.7812 5.88387 51.2134 3.79621 48.0625 3.79621C46.545 3.79621 45.1632 4.28507 44.1369 5.07445V1.62842H42.3398V12.808H44.1369V11.8303C45.1632 12.6197 46.541 13.1085 48.0625 13.1085C51.2134 13.1085 53.7812 11.0209 53.7812 8.45236ZM51.9841 8.45236C51.9841 10.0271 50.223 11.3054 48.0625 11.3054C45.898 11.3054 44.1369 10.0231 44.1369 8.45236C44.1369 6.88161 45.898 5.59937 48.0625 5.59937C50.223 5.59536 51.9841 6.8776 51.9841 8.45236Z" fill="#1D1D1B"/>
<path d="M93.9693 4.09273H91.4294L88.65 6.8776L87.3761 8.15183L87.0686 8.46037V1.62842H85.2715V12.808H87.0686V11.0128L88.65 9.43007L92.0165 12.808H94.5563L89.9199 8.15183L93.9693 4.09273Z" fill="#1D1D1B"/>
<path d="M6.29561 4.90636L10.2332 12.8082H12.3138L6.29561 0.727051L0.273438 12.8082H2.35404L6.29561 4.90636Z" fill="#1D1D1B"/>
</svg>
