<svg width="48" height="32" viewBox="0 0 48 32" fill="none" xmlns="http://www.w3.org/2000/svg">
<path fill-rule="evenodd" clip-rule="evenodd" d="M24.5428 28.1783V19.1954L38.3994 11.1949L25.085 3.5077L28.9934 1.25103L46.7584 11.5073V20.4893L28.9926 30.7481L24.5428 28.1783ZM23.4573 18.5699V28.8046L28.9926 32L47.8422 21.1174V10.8826L28.9926 0L22.915 3.50856L36.2294 11.1958L23.4573 18.5699Z" fill="#D453B5"/>
<path fill-rule="evenodd" clip-rule="evenodd" d="M47.0287 10.7256L28.9925 21.1389L24.2707 18.4129C24.0116 18.2636 23.6795 18.352 23.5302 18.6111C23.3809 18.8702 23.4693 19.2023 23.7284 19.3516L28.9925 22.3908L47.571 11.6643C47.8301 11.515 47.9193 11.183 47.7692 10.9238C47.619 10.6647 47.2878 10.5763 47.0287 10.7256Z" fill="#D453B5"/>
<path fill-rule="evenodd" clip-rule="evenodd" d="M28.4502 21.7652V31.3736C28.4502 31.6731 28.693 31.9159 28.9925 31.9159C29.2919 31.9159 29.5348 31.6731 29.5348 31.3736V21.7652C29.5348 21.4657 29.2919 21.2229 28.9925 21.2229C28.6939 21.2229 28.4502 21.4657 28.4502 21.7652Z" fill="#D453B5"/>
<path fill-rule="evenodd" clip-rule="evenodd" d="M23.4574 28.1783L19.0067 30.7481L1.24253 20.491V11.509C3.33702 10.3 16.913 2.46174 19.0075 1.25275L22.9159 3.50941L9.60163 11.1967L23.4582 19.1971V28.1783H23.4574ZM19.0075 32L24.5428 28.8046V18.5699L11.7708 11.1958L25.0851 3.50856L19.0075 0L0.157959 10.8826V21.1174L19.0075 32Z" fill="#5E5EDE"/>
<path fill-rule="evenodd" clip-rule="evenodd" d="M0.42899 11.6651L19.0074 22.3915L24.2715 19.3523C24.5307 19.203 24.6199 18.871 24.4698 18.6118C24.3205 18.3527 23.9884 18.2635 23.7293 18.4136C23.7293 18.4136 20.0482 20.539 19.0074 21.1396L0.971276 10.7264C0.712146 10.5771 0.380081 10.6654 0.230781 10.9246C0.0806229 11.1837 0.16986 11.5158 0.42899 11.6651Z" fill="#5E5EDE"/>
<path fill-rule="evenodd" clip-rule="evenodd" d="M18.4651 21.7652V31.3736C18.4651 31.6731 18.7079 31.9159 19.0074 31.9159C19.3068 31.9159 19.5497 31.6731 19.5497 31.3736V21.7652C19.5497 21.4657 19.3068 21.2229 19.0074 21.2229C18.7079 21.2229 18.4651 21.4657 18.4651 21.7652Z" fill="#5E5EDE"/>
<path fill-rule="evenodd" clip-rule="evenodd" d="M31.2628 10.8689C31.3151 10.9813 31.3426 11.0989 31.3426 11.2207C31.3426 11.9698 30.2898 12.5773 28.9924 12.5773C27.6959 12.5773 26.6422 11.9689 26.6422 11.2207C26.6422 11.0989 26.6697 10.9813 26.722 10.8689C26.9906 11.4472 27.9061 11.8737 28.9924 11.8737C30.0787 11.8737 30.9942 11.4472 31.2628 10.8689Z" fill="#5E5EDE"/>
<path fill-rule="evenodd" clip-rule="evenodd" d="M21.277 10.8689C21.3293 10.9813 21.3568 11.0989 21.3568 11.2207C21.3568 11.9698 20.3039 12.5773 19.0066 12.5773C17.7092 12.5773 16.6564 11.9689 16.6564 11.2207C16.6564 11.0989 16.6838 10.9813 16.7362 10.8689C17.0047 11.4472 17.9203 11.8737 19.0066 11.8737C20.0928 11.8737 21.0084 11.4472 21.277 10.8689Z" fill="#5E5EDE"/>
</svg>
