<svg width="511" height="511" viewBox="0 0 511 511" fill="none" xmlns="http://www.w3.org/2000/svg">
<path d="M471.08 0H39.92C29.3326 0 19.1787 4.20584 11.6923 11.6923C4.20584 19.1787 0 29.3326 0 39.92V471.08C0 481.667 4.20584 491.821 11.6923 499.308C19.1787 506.794 29.3326 511 39.92 511H471.08C481.667 511 491.821 506.794 499.308 499.308C506.794 491.821 511 481.667 511 471.08V39.92C511 29.3326 506.794 19.1787 499.308 11.6923C491.821 4.20584 481.667 0 471.08 0V0ZM186 127H232.55V266.64H267.44H277.13V313.17H267.46H186V127ZM279.07 382.94H232.54V336.41H279.07V382.94ZM326.36 383H279.09V127H326.36V383Z" fill="black"/>
<path d="M279.07 336.41H277.13V382.94H279.07V336.41Z" fill="black"/>
<path d="M277.13 266.61V313.14H267.46V313.18H186V127H232.55V266.64H267.44V266.61H277.13Z" fill="white"/>
<path d="M277.13 336.41H232.54V382.94H277.13V336.41Z" fill="white"/>
<path d="M326.36 127H279.09V383H326.36V127Z" fill="white"/>
</svg>
